<?xml version="1.0" encoding="UTF-8" standalone="no"?>
<!-- Created with Inkscape (http://www.inkscape.org/) -->

<svg
   width="210mm"
   height="297mm"
   viewBox="0 0 210 297"
   version="1.1"
   id="svg1"
   xml:space="preserve"
   inkscape:version="1.3.2 (091e20e, 2023-11-25, custom)"
   sodipodi:docname="S Logo.svg"
   xmlns:inkscape="http://www.inkscape.org/namespaces/inkscape"
   xmlns:sodipodi="http://sodipodi.sourceforge.net/DTD/sodipodi-0.dtd"
   xmlns="http://www.w3.org/2000/svg"
   xmlns:svg="http://www.w3.org/2000/svg"><sodipodi:namedview
     id="namedview1"
     pagecolor="#ffffff"
     bordercolor="#000000"
     borderopacity="0.25"
     inkscape:showpageshadow="2"
     inkscape:pageopacity="0.0"
     inkscape:pagecheckerboard="0"
     inkscape:deskcolor="#d1d1d1"
     inkscape:document-units="mm"
     inkscape:zoom="0.76232805"
     inkscape:cx="127.24181"
     inkscape:cy="432.22862"
     inkscape:window-width="1920"
     inkscape:window-height="1111"
     inkscape:window-x="-9"
     inkscape:window-y="-9"
     inkscape:window-maximized="1"
     inkscape:current-layer="layer1" /><defs
     id="defs1" /><g
     inkscape:label="Layer 1"
     inkscape:groupmode="layer"
     id="layer1"><path
       style="fill:#333333"
       d="m 56.017519,188.85721 v -0.14412 l 2.668565,-3.11583 2.668565,-3.11582 1.352046,-1.58574 1.352045,-1.58574 2.331256,-2.81022 2.331256,-2.81022 25.340254,-0.009 25.340254,-0.009 0.94102,-0.13002 0.94101,-0.13001 0.60494,-0.1499 0.60494,-0.1499 1.07545,-0.34193 1.07545,-0.34193 1.1385,-0.52307 1.1385,-0.52308 1.34407,-0.90249 1.34407,-0.90249 1.25488,-1.19885 1.25488,-1.19885 0.79244,-1.05164 0.79244,-1.05165 0.45248,-0.7742 0.45247,-0.77421 0.54823,-1.28072 0.54822,-1.28072 0.2797,-1.07182 0.27969,-1.07182 0.14425,-0.80659 0.14426,-0.80659 0.0799,-1.88203 0.0799,-1.88203 -0.16374,-1.41153 -0.16374,-1.41153 -0.18687,-0.80982 -0.18688,-0.80983 -0.2605,-0.80335 -0.26051,-0.80334 -0.43006,-1.00823 -0.43007,-1.00824 -0.48137,-0.80658 -0.48138,-0.80659 -0.73726,-1.00823 -0.73725,-1.00823 -1.13475,-1.11305 -1.13476,-1.11305 -1.22833,-0.84613 -1.22834,-0.84613 -1.07545,-0.54445 -1.07545,-0.54446 -0.93346,-0.36772 -0.93346,-0.36772 -1.28465,-0.34825 -1.28465,-0.34824 -16.13172,-0.0787 -16.131736,-0.0787 -1.54596,-0.29457 -1.54595,-0.29458 -2.016468,-0.5508 -2.016466,-0.55081 -1.478741,-0.62136 -1.478741,-0.62137 -1.170363,-0.57342 -1.170363,-0.57342 -1.451042,-0.90474 -1.451043,-0.90474 -0.470509,-0.34164 -0.470508,-0.34165 -1.320783,-1.05887 -1.320784,-1.05888 -1.367837,-1.37083 -1.367838,-1.37082 -1.142663,-1.44404 -1.142664,-1.44404 -0.850148,-1.37134 -0.850147,-1.37133 -0.730314,-1.44468 -0.730314,-1.44469 -0.538333,-1.35124 -0.538334,-1.35124 -0.478116,-1.57309 -0.478116,-1.57308 -0.111716,-0.53772 -0.111716,-0.53773 -0.209374,-1.07544 -0.209374,-1.07545 -0.163957,-1.41153 -0.163958,-1.41152 0.0075,-2.55419 0.0075,-2.55419 0.221621,-1.74761 0.221621,-1.7476 0.20992,-1.13002 0.209919,-1.13001 0.529617,-1.81117 0.529617,-1.81117 0.684096,-1.68165 0.684097,-1.68165 0.538912,-1.02327 0.538913,-1.02327 0.507756,-0.8738 0.507756,-0.8738 0.987508,-1.36522 0.987508,-1.36523 1.182348,-1.34669 1.182348,-1.34668 1.035764,-0.9323 1.035764,-0.93229 0.779196,-0.63059 0.779196,-0.63059 1.438916,-0.97993 1.438917,-0.97993 0.73937,-0.40977 0.739371,-0.40978 1.277095,-0.66983 1.277095,-0.66984 1.613172,-0.61002 1.613173,-0.61001 1.411525,-0.40199 1.411524,-0.40199 0.67216,-0.13802 0.67215,-0.13802 0.80659,-0.14287 0.80659,-0.14287 1.20987,-0.13578 1.20988,-0.13578 32.162631,-3.8e-4 32.16263,-3.8e-4 v 0.1155 0.11551 l -0.51191,0.59026 -0.51191,0.59025 -1.73981,2.0612 -1.73981,2.0612 -0.87381,1.04147 -0.8738,1.04146 -1.62918,1.9385 -1.62919,1.9385 -1.60064,1.88204 -1.60064,1.88203 -26.14336,0.0713 -26.143351,0.0713 -1.3191,0.30284 -1.31909,0.30284 -1.10067,0.40118 -1.10066,0.40118 -1.31996,0.73961 -1.319961,0.73961 -0.76372,0.55537 -0.76372,0.55537 -1.503889,1.50499 -1.503888,1.50498 -0.82276,1.26421 -0.82276,1.26421 -0.514247,1.07545 -0.514248,1.07545 -0.345919,1.0395 -0.34592,1.03951 -0.214013,1.0361 -0.214013,1.0361 -0.142225,1.48682 -0.142225,1.48681 0.08717,1.40072 0.08717,1.40071 0.267611,1.38673 0.267611,1.38673 0.34303,1.04384 0.34303,1.04384 0.581411,1.20988 0.581411,1.20988 0.671645,1.02666 0.671645,1.02667 0.950472,1.07863 0.950472,1.07862 1.112222,0.89645 1.112222,0.89644 1.304841,0.77686 1.30484,0.77686 1.376293,0.57117 1.37628,0.57118 1.28459,0.3529 1.28459,0.35289 15.930083,0.077 15.93007,0.0771 1.41153,0.22082 1.41153,0.22082 0.72488,0.1416 0.72489,0.1416 1.41432,0.40867 1.41432,0.40867 1.89373,0.75011 1.89372,0.75012 1.7476,0.94703 1.7476,0.94704 1.00824,0.67245 1.00823,0.67246 0.80659,0.60957 0.80658,0.60958 1.00824,0.85875 1.00823,0.85875 1.23521,1.33628 1.2352,1.33628 0.65955,0.83605 0.65954,0.83606 0.67725,1.00823 0.67725,1.00823 0.74712,1.30151 0.74711,1.30151 0.67064,1.52154 0.67063,1.52154 0.48359,1.40102 0.48359,1.40101 0.32377,1.28761 0.32377,1.2876 0.31127,2.01647 0.31127,2.01646 -0.008,3.76407 -0.008,3.76407 -0.23125,1.54596 -0.23126,1.54596 -0.14343,0.67215 -0.14343,0.67216 -0.25767,1.1011 -0.25766,1.1011 -0.48057,1.38587 -0.48057,1.38587 -0.76535,1.68039 -0.76534,1.68039 -0.93116,1.54596 -0.93116,1.54595 -1.07165,1.41153 -1.07164,1.41152 -0.54019,0.60494 -0.54019,0.60494 -1.21689,1.19442 -1.21688,1.19441 -1.2834,1.03005 -1.2834,1.03005 -1.338,0.88753 -1.33801,0.88753 -1.41153,0.74541 -1.41152,0.74542 -1.47874,0.63327 -1.47875,0.63328 -1.41152,0.45378 -1.41153,0.45378 -1.94925,0.39511 -1.94925,0.3951 -1.20988,0.13739 -1.20988,0.13739 -32.028193,0.001 -32.028195,0.001 z m 16.623898,-20.86072 0.270179,-0.30247 4.644168,-5.57888 4.644168,-5.57889 1.644657,-1.94925 1.644655,-1.94925 1.63112,-1.95082 1.63111,-1.95082 1.00213,-1.17755 1.00213,-1.17754 14.793526,0.0365 14.79352,0.0365 0.77103,0.3114 0.77104,0.31141 0.77492,0.52067 0.77492,0.52068 0.52639,0.51223 0.52639,0.51223 0.51689,0.79605 0.51689,0.79604 0.34432,1.08599 0.34432,1.08599 0.006,1.2771 0.006,1.27709 -0.22855,0.8738 -0.22856,0.8738 -0.47414,0.90444 -0.47415,0.90443 -0.77602,0.84317 -0.77602,0.84317 -0.78068,0.46897 -0.78069,0.46897 -0.88157,0.30054 -0.88158,0.30054 -11.05291,0.003 -11.052924,0.003 -1.23972,1.44513 -1.23972,1.44513 -1.40165,1.57957 -1.40165,1.57956 H 82.461071 72.371239 Z m 16.714997,-59.57132 -0.8738,-0.30508 -0.4432,-0.23147 -0.4432,-0.23147 -0.28939,-0.22854 -0.28938,-0.22854 -0.83597,-0.78372 -0.83597,-0.78371 -0.47007,-0.89668 -0.47006,-0.89667 -0.228558,-0.8738 -0.228555,-0.8738 v -1.20988 -1.20988 l 0.228555,-0.8738 0.228558,-0.87381 0.49184,-0.94101 0.49184,-0.94102 0.94184,-0.94698 0.94184,-0.94698 1.02123,-0.51052 1.02123,-0.51051 0.8608,-0.18456 0.86081,-0.18456 10.821706,-0.005 10.8217,-0.005 2.60631,-2.95743 2.60631,-2.95743 h 10.06381 10.06382 l -0.004,0.10082 -0.004,0.10082 -1.71044,2.02637 -1.71043,2.02636 -1.40599,1.67049 -1.40598,1.67049 -0.0761,0.0672 -0.0761,0.0672 -3.75231,4.50344 -3.75231,4.50344 -2.21865,2.58779 -2.21866,2.5878 -14.72808,-0.008 -14.728086,-0.008 z"
       id="path55"
       sodipodi:nodetypes="ccccccccccccccccccccccccccccccccccccccccccccccccccccccccccccccccccccccccccccccccccccccccccccccccccccccccccccccccccccccccccccccccccccccccccccccccccccccccccccccccccccccccccccccccccccccccccccccccccccccccccccccccccccccccccccccccccccccccccccccccccccccccccccccccccccccccccccccccccccccccccccccccccccccccccccccccccccccccccccccccccccccccccccccccccccccc" /></g></svg>
