<?xml version="1.0" encoding="UTF-8"?>
<svg xmlns="http://www.w3.org/2000/svg" viewBox="0 0 64 64" width="64" height="64">
  <!-- Blue rounded square background (matches sidebar) -->
  <rect width="64" height="64" fill="#86c7f3" rx="12"/>
  <!-- Black S logo centered inside -->
  <g transform="translate(32, 32) scale(0.185) translate(-106, -130)">
    <g transform="translate(0.719107,-17.341987)">
      <path fill="#000000" d="m 75.263355,277.20099 v -0.30504 l 5.648126,-6.59479 5.648146,-6.59477 2.861652,-3.35629 2.861673,-3.35629 4.934194,-5.94795 4.934214,-5.94796 26.11709,-0.019 7.06712,-0.0191 1.99171,-0.27519 1.99169,-0.27517 1.28038,-0.31727 1.28039,-0.31727 2.27623,-0.72371 2.27624,-0.72371 2.40968,-1.1071 2.40968,-1.10712 2.84479,-1.91016 2.84479,-1.91017 2.65601,-2.53742 2.656,-2.53741 1.67724,-2.22584 1.67723,-2.22587 0.95769,-1.63863 0.95767,-1.63864 1.16036,-2.71071 1.16034,-2.7107 0.59199,-2.26856 0.59198,-2.26854 0.30531,-1.70719 0.30534,-1.70718 0.1691,-3.98341 0.16911,-3.9834 -0.34656,-2.98756 -0.34656,-2.98757 -0.39552,-1.71402 -0.39554,-1.71404 -0.55136,-1.70032 -0.55138,-1.7003 -0.91024,-2.13397 -0.91026,-2.13398 -1.01884,-1.70716 -1.01887,-1.70719 -1.56044,-2.13396 -1.56042,-2.13396 -2.40175,-2.35583 -2.40176,-2.35581 -2.59982,-1.79087 -2.59984,-1.79087 -2.27624,-1.15236 -2.27623,-1.15237 -1.97571,-0.7783 -1.97571,-0.77829 -2.71902,-0.73709 -2.71902,-0.73706 -34.1435,-0.16658 -34.143541,-0.16657 -3.272092,-0.62347 -3.272072,-0.6235 -4.267948,-1.16579 -4.267926,-1.16581 -3.129819,-1.31514 -3.129818,-1.31515 -2.477141,-1.21367 -2.477118,-1.21367 -3.071191,-1.91493 -3.07121,-1.91491 -0.995835,-0.7231 -0.995855,-0.72311 -2.795511,-2.24115 -2.795489,-2.24117 -2.895094,-2.90142 -2.895072,-2.9014 -2.418512,-3.05637 -2.418491,-3.05638 -1.799379,-2.90251 -1.79938,-2.90247 -1.545734,-3.05773 -1.545733,-3.05775 -1.139421,-2.85996 -1.139399,-2.85997 -1.0119621,-3.32952 -1.0119414,-3.32949 -0.23646,-1.13811 -0.2364601,-1.13813 -0.443141,-2.27621 -0.4431411,-2.27625 -0.3470281,-2.987554 -0.3470291,-2.987532 0.016931,-5.40602 0.014817,-5.40602 0.4690686,-3.698879 0.4690686,-3.698865 0.4443046,-2.391736 0.4443046,-2.391716 1.1209647,-3.833425 1.1209628,-3.833423 1.447907,-3.559287 1.447928,-3.559286 1.140627,-2.165796 1.140627,-2.165796 1.074696,-1.849436 1.074697,-1.849437 2.090087,-2.889549 2.090109,-2.889569 2.502496,-2.850329 2.502496,-2.850308 2.192232,-1.973254 2.192253,-1.973233 1.64919,-1.334672 1.649211,-1.334672 3.045516,-2.074065 3.045539,-2.074065 1.564909,-0.867296 1.564909,-0.867317 2.703039,-1.417725 2.703017,-1.417746 3.414346,-1.291134 3.414367,-1.291114 2.987544,-0.85083 2.987565,-0.850829 1.422657,-0.292125 1.422636,-0.292126 1.707182,-0.302391 1.707184,-0.30239 2.560743,-0.287384 2.560765,-0.287385 24.681961,-8.05e-4 41.086127,-8.03e-4 v 0.244461 0.244481 l -1.08348,1.249312 -1.08348,1.24929 -3.68239,4.362621 -3.68238,4.362621 -1.84945,2.204317 -1.84945,2.204296 -3.44822,4.102921 -3.44826,4.102921 -3.38782,3.983421 -3.38783,3.9834 -28.346077,0.150909 -11.941887,0.15091 -2.791933,0.640975 -2.791911,0.640973 -2.329618,0.849116 -2.329595,0.849114 -2.793753,1.565418 -2.793755,1.565418 -1.616446,1.175465 -1.616448,1.175465 -3.183049,3.185378 -3.183051,3.185357 -1.741408,2.675755 -1.741407,2.675757 -1.088433,2.276232 -1.088432,2.276244 -0.732156,2.200151 -0.732154,2.200162 -0.452962,2.192961 -0.452962,2.192928 -0.301036,3.146902 -0.301015,3.146892 0.184563,2.964662 0.184562,2.964642 0.566409,2.935065 0.566408,2.935061 0.726038,2.20934 0.726039,2.20933 1.230579,2.56076 1.230581,2.56077 1.421576,2.17297 1.421556,2.173 2.011712,2.28298 2.011733,2.28294 2.354062,1.89738 2.354064,1.89735 2.761751,1.64426 2.761752,1.64426 2.912978,1.20891 2.912958,1.20892 2.718891,0.74693 2.718891,0.74691 33.716745,0.16298 33.7167,0.16318 2.98756,0.46737 2.98757,0.46738 1.53424,0.2997 1.53426,0.2997 2.99347,0.86497 2.99347,0.86497 4.00817,1.58765 4.00814,1.58766 3.69887,2.00443 3.69887,2.00445 2.13399,1.42327 2.13396,1.42329 1.70718,1.29018 1.70716,1.2902 2.13399,1.81759 2.13396,1.81758 2.61438,2.82829 2.61435,2.8283 1.39597,1.76954 1.39595,1.76956 1.43342,2.13396 1.43344,2.13396 1.58131,2.7547 1.58129,2.75471 1.41943,3.22041 1.41942,3.2204 1.02355,2.96532 1.02354,2.96531 0.68527,2.72528 0.68528,2.72525 0.65881,4.26796 0.65882,4.26792 c 0,0 0.43107,5.26784 0.4254,7.92345 -0.006,2.6556 -0.4594,8.0102 -0.4594,8.0102 l -0.48945,3.27209 -0.48946,3.2721 -0.30358,1.42263 -0.30358,1.42265 -0.54536,2.33053 -0.54536,2.33053 -1.01714,2.93325 -1.01715,2.93326 -1.6199,3.55662 -1.61988,3.55662 -1.97084,3.27209 -1.97084,3.27207 -2.26819,2.98757 -2.26818,2.98754 -1.14333,1.28038 -1.14334,1.28038 -2.5756,2.52805 -2.57558,2.52802 -2.71637,2.18015 -2.71638,2.18014 -2.83193,1.87849 -2.83196,1.87851 -2.98756,1.57768 -2.98755,1.57772 -3.12982,1.34034 -3.12984,1.34038 -2.98754,0.96043 -2.98757,0.96045 -4.12568,0.83627 -4.12566,0.83624 -2.56077,0.2908 -2.56076,0.29079 -21.22244,0.002 -40.272413,0.002 z m -75.410636,-0.23181 0.571848,-0.64019 46.342092,-55.72877 9.829591,-11.80798 3.480995,-4.12566 3.480975,-4.12568 3.452338,-4.129 3.452316,-4.12899 2.121052,-2.49234 2.121053,-2.49232 31.311161,0.0773 31.31114,0.0773 1.63192,0.65909 1.63194,0.65911 1.64015,1.10203 1.64016,1.10204 1.11412,1.08416 1.11412,1.08415 1.09403,1.68487 1.09402,1.68486 0.72876,2.29854 0.72878,2.29855 0.0127,2.70304 0.0127,2.70302 -0.48374,1.84943 -0.48375,1.84943 -1.00355,1.9143 -1.00356,1.91426 -1.64247,1.78461 -1.64249,1.78461 -1.65234,0.99259 -1.65237,0.9926 -1.86587,0.6361 -1.86591,0.63611 -23.39397,0.006 -23.394018,0.006 -2.623923,3.05868 -2.623922,3.05868 -2.966654,3.34323 -39.479155,47.26404 H 20.636464 -0.719107 Z M 71.743257,106.963 l -1.849437,-0.64571 -0.938052,-0.48991 -0.938053,-0.48992 -0.612506,-0.48372 -0.612486,-0.48371 -1.769367,-1.65878 -1.769368,-1.65875 -0.994924,-1.897864 -0.994902,-1.897828 -0.483758,-1.849421 -0.483736,-1.849438 v -2.560735 -2.560758 l 0.483736,-1.849428 0.483758,-1.849451 1.041001,-1.991678 1.041001,-1.991697 1.993446,-2.004328 1.993446,-2.004318 2.161478,-1.08054 2.161479,-1.080519 1.821921,-0.390633 1.821942,-0.390621 22.904628,-0.01068 22.904606,-0.01068 5.51637,-6.259532 42.02887,-50.180364 h 21.3005 21.30052 l -0.009,0.21339 -0.009,0.21339 -40.13272,48.209735 -3.62021,4.288884 -2.97584,3.535666 -2.97581,3.535666 -0.16108,0.142224 -0.16106,0.142234 -7.94193,9.531699 -7.94193,9.531676 -4.69587,5.477149 -4.69589,5.47719 -31.17263,-0.017 -31.172661,-0.017 z M 32.925713,236.3136 v -0.30504"/>
    </g>
  </g>
</svg>
